<svg id="レイヤー_1" data-name="レイヤー 1" xmlns="http://www.w3.org/2000/svg" xmlns:xlink="http://www.w3.org/1999/xlink" viewBox="0 0 405.91 419.19">
  <defs>
    <style>
      .cls-1 {
        fill: url("#名称未設定グラデーション_14");
      }
      .cls-2 {
        fill: #595757;
      }
    </style>
    <linearGradient id="名称未設定グラデーション_14" x1="62.67" y1="240.5" x2="464.88" y2="240.5" gradientTransform="matrix(1.01, -0.04, -0.04, 1.11, -0.58, 1.82)" gradientUnits="userSpaceOnUse"><stop offset="0" stop-color="#b0deea"/><stop offset="0.03" stop-color="#b5e0eb"/><stop offset="0.06" stop-color="#c2e6ef"/><stop offset="0.1" stop-color="#d9eff5"/><stop offset="0.13" stop-color="#f9fcfd"/><stop offset="0.14" stop-color="#fff"/><stop offset="0.15" stop-color="#eceef6"/><stop offset="0.18" stop-color="#bac3de"/><stop offset="0.21" stop-color="#8f9dca"/><stop offset="0.24" stop-color="#6b7eb9"/><stop offset="0.27" stop-color="#5066ac"/><stop offset="0.31" stop-color="#3c55a3"/><stop offset="0.34" stop-color="#314b9e"/><stop offset="0.37" stop-color="#2d489c"/><stop offset="0.42" stop-color="#33549d"/><stop offset="0.51" stop-color="#43749f"/><stop offset="0.62" stop-color="#5ca8a2"/><stop offset="0.67" stop-color="#68c0a4"/><stop offset="1" stop-color="#3599d5"/><stop offset="1" stop-color="#e5352b"/></linearGradient>
  </defs><path class="cls-1" d="M415.94,455.63c-72.1,44.24-125.28-94.12-239.36-95.39C41.41,358.72,6.67,259.67,130,92.86c52.19-70.58,168.08-55.73,250,25S488.05,411.39,415.94,455.63Z" transform="translate(-52.6 -46.54)"/><path
    class="cls-2"
    d="M416.66,456.81a60.47,60.47,0,0,1-19,7.81,52.65,52.65,0,0,1-20.55.2,75.84,75.84,0,0,1-19.37-6.57A143.35,143.35,0,0,1,340.22,448c-11.22-7.56-21.7-16-32.19-24.4s-21-16.76-31.86-24.53A253,253,0,0,0,242,378.2a160.41,160.41,0,0,0-37.51-13.42A138.27,138.27,0,0,0,184.77,362c-3.33-.25-6.61-.31-10-.38-1.69,0-3.37-.06-5.06-.13l-5.06-.23a196.84,196.84,0,0,1-40-6.18c-13.06-3.56-25.77-8.93-36.91-16.83a82.32,82.32,0,0,1-21.31-21.89,81.63,81.63,0,0,1-5-8.94c-6-12.32-8.57-26.05-8.78-39.6a156.25,156.25,0,0,1,5.08-40.23c1.63-6.56,3.63-13,5.84-19.4s4.68-12.67,7.33-18.87a382.09,382.09,0,0,1,18-36.2c6.58-11.76,13.69-23.21,21.19-34.39,1.85-2.81,3.76-5.58,5.68-8.34s3.87-5.51,5.82-8.25,4-5.44,5.93-8.16,4.09-5.42,6.28-8a107.35,107.35,0,0,1,31.67-25.32A120.69,120.69,0,0,1,204,48.15a154,154,0,0,1,40.46-.53,194.36,194.36,0,0,1,39.44,8.91,245.34,245.34,0,0,1,70.81,38.29,265.7,265.7,0,0,1,30.07,26.94,199.78,199.78,0,0,1,24.19,32.3c14,23,24.38,48.09,32.23,73.79a408.93,408.93,0,0,1,15.7,79,347.59,347.59,0,0,1,1.57,40.3,250.41,250.41,0,0,1-3.87,40.14c-2.46,13.23-6.18,26.32-12.11,38.48a88,88,0,0,1-10.87,17.11,68.92,68.92,0,0,1-7,7.35,60.11,60.11,0,0,1-8.16,6.12Zm-1.16-1.9a60.07,60.07,0,0,0,8-5.88,68.63,68.63,0,0,0,6.93-7.13,86.65,86.65,0,0,0,10.82-16.74c6-12,9.71-24.94,12.2-38.08,4.89-26.37,5-53.46,2.46-80.13a400.57,400.57,0,0,0-15.73-78.79c-7.91-25.61-18.33-50.55-32.34-73.41a198.68,198.68,0,0,0-24.12-32,263.64,263.64,0,0,0-30-26.66,241.52,241.52,0,0,0-70.45-37.72,192.39,192.39,0,0,0-39.07-8.62,152,152,0,0,0-39.87.72,118.59,118.59,0,0,0-37.7,12.4,105,105,0,0,0-30.77,24.86c-2.13,2.55-4.15,5.13-6.1,7.88s-4,5.4-5.88,8.15-3.87,5.47-5.75,8.25-3.79,5.52-5.62,8.32C105.11,131.5,98,142.84,91.44,154.53a375,375,0,0,0-17.89,35.9c-2.64,6.14-5.11,12.35-7.29,18.67s-4.17,12.68-5.79,19.15a154.28,154.28,0,0,0-5,39.48c.2,13.24,2.68,26.55,8.47,38.45a72.27,72.27,0,0,0,10.79,16.5A79.92,79.92,0,0,0,89.33,336c10.8,7.66,23.21,12.92,36,16.41a193.75,193.75,0,0,0,39.46,6.09l5,.23c1.67.07,3.34.09,5,.13,3.34.07,6.77.13,10.14.38a142.33,142.33,0,0,1,20.12,2.88,162.83,162.83,0,0,1,38.16,13.65,255.93,255.93,0,0,1,34.53,21.09c11,7.83,21.5,16.23,32,24.62s20.93,16.81,32,24.27A141.45,141.45,0,0,0,359,455.75a73.61,73.61,0,0,0,18.66,6.35,49.89,49.89,0,0,0,19.48-.2,57.6,57.6,0,0,0,18.1-7.45Z"
    transform="translate(-52.6 -46.54)"/></svg>
